<?xml version="1.0" encoding="UTF-8" standalone="no"?>
<!DOCTYPE svg PUBLIC "-//W3C//DTD SVG 1.1//EN"
 "http://www.w3.org/Graphics/SVG/1.1/DTD/svg11.dtd">
<!-- Generated by graphviz version 2.43.0 (0)
 -->
<!-- Title: Tree Pages: 1 -->
<svg width="252pt" height="195pt"
 viewBox="0.00 0.00 252.00 195.00" xmlns="http://www.w3.org/2000/svg" xmlns:xlink="http://www.w3.org/1999/xlink">
<g id="graph0" class="graph" transform="scale(1 1) rotate(0) translate(4 191)">
<title>Tree</title>
<polygon fill="white" stroke="transparent" points="-4,4 -4,-191 248,-191 248,4 -4,4"/>
<!-- 0 -->
<g id="node1" class="node">
<title>0</title>
<path fill="#ffffff" stroke="black" d="M166,-187C166,-187 77,-187 77,-187 71,-187 65,-181 65,-175 65,-175 65,-116 65,-116 65,-110 71,-104 77,-104 77,-104 166,-104 166,-104 172,-104 178,-110 178,-116 178,-116 178,-175 178,-175 178,-181 172,-187 166,-187"/>
<text text-anchor="start" x="91" y="-171.8" font-family="Helvetica,sans-Serif" font-size="14.00">x2 ≤ 0.5</text>
<text text-anchor="start" x="86.5" y="-156.8" font-family="Helvetica,sans-Serif" font-size="14.00">gini = 0.5</text>
<text text-anchor="start" x="77.5" y="-141.8" font-family="Helvetica,sans-Serif" font-size="14.00">samples = 2</text>
<text text-anchor="start" x="73" y="-126.8" font-family="Helvetica,sans-Serif" font-size="14.00">value = [1, 1]</text>
<text text-anchor="start" x="89" y="-111.8" font-family="Helvetica,sans-Serif" font-size="14.00">class = 0</text>
</g>
<!-- 1 -->
<g id="node2" class="node">
<title>1</title>
<path fill="#e58139" stroke="black" d="M101,-68C101,-68 12,-68 12,-68 6,-68 0,-62 0,-56 0,-56 0,-12 0,-12 0,-6 6,0 12,0 12,0 101,0 101,0 107,0 113,-6 113,-12 113,-12 113,-56 113,-56 113,-62 107,-68 101,-68"/>
<text text-anchor="start" x="21.5" y="-52.8" font-family="Helvetica,sans-Serif" font-size="14.00">gini = 0.0</text>
<text text-anchor="start" x="12.5" y="-37.8" font-family="Helvetica,sans-Serif" font-size="14.00">samples = 1</text>
<text text-anchor="start" x="8" y="-22.8" font-family="Helvetica,sans-Serif" font-size="14.00">value = [1, 0]</text>
<text text-anchor="start" x="24" y="-7.8" font-family="Helvetica,sans-Serif" font-size="14.00">class = 0</text>
</g>
<!-- 0&#45;&gt;1 -->
<g id="edge1" class="edge">
<title>0&#45;&gt;1</title>
<path fill="none" stroke="black" d="M97.3,-103.73C92.1,-94.97 86.6,-85.7 81.38,-76.91"/>
<polygon fill="black" stroke="black" points="84.38,-75.11 76.27,-68.3 78.36,-78.69 84.38,-75.11"/>
<text text-anchor="middle" x="70.09" y="-88.82" font-family="Helvetica,sans-Serif" font-size="14.00">True</text>
</g>
<!-- 2 -->
<g id="node3" class="node">
<title>2</title>
<path fill="#399de5" stroke="black" d="M232,-68C232,-68 143,-68 143,-68 137,-68 131,-62 131,-56 131,-56 131,-12 131,-12 131,-6 137,0 143,0 143,0 232,0 232,0 238,0 244,-6 244,-12 244,-12 244,-56 244,-56 244,-62 238,-68 232,-68"/>
<text text-anchor="start" x="152.5" y="-52.8" font-family="Helvetica,sans-Serif" font-size="14.00">gini = 0.0</text>
<text text-anchor="start" x="143.5" y="-37.8" font-family="Helvetica,sans-Serif" font-size="14.00">samples = 1</text>
<text text-anchor="start" x="139" y="-22.8" font-family="Helvetica,sans-Serif" font-size="14.00">value = [0, 1]</text>
<text text-anchor="start" x="155" y="-7.8" font-family="Helvetica,sans-Serif" font-size="14.00">class = 1</text>
</g>
<!-- 0&#45;&gt;2 -->
<g id="edge2" class="edge">
<title>0&#45;&gt;2</title>
<path fill="none" stroke="black" d="M146.08,-103.73C151.35,-94.97 156.94,-85.7 162.24,-76.91"/>
<polygon fill="black" stroke="black" points="165.26,-78.67 167.43,-68.3 159.27,-75.06 165.26,-78.67"/>
<text text-anchor="middle" x="173.44" y="-88.87" font-family="Helvetica,sans-Serif" font-size="14.00">False</text>
</g>
</g>
</svg>
